<svg viewBox="0 0 330 200" xmlns="http://www.w3.org/2000/svg"><g><g><g><g><g><line x1="40" y1="177" x2="35" y2="177" style="visibility: inherit;" fill="rgb(0, 0, 0)" stroke="rgb(204, 204, 204)" stroke-width="1px"></line><line x1="40" y1="157.33333333333331" x2="35" y2="157.33333333333331" style="visibility: inherit;" fill="rgb(0, 0, 0)" stroke="rgb(204, 204, 204)" stroke-width="1px"></line><line x1="40" y1="137.66666666666666" x2="35" y2="137.66666666666666" style="visibility: inherit;" fill="rgb(0, 0, 0)" stroke="rgb(204, 204, 204)" stroke-width="1px"></line><line x1="40" y1="118.00000000000001" x2="35" y2="118.00000000000001" style="visibility: inherit;" fill="rgb(0, 0, 0)" stroke="rgb(204, 204, 204)" stroke-width="1px"></line><line x1="40" y1="98.33333333333334" x2="35" y2="98.33333333333334" style="visibility: inherit;" fill="rgb(0, 0, 0)" stroke="rgb(204, 204, 204)" stroke-width="1px"></line><line x1="40" y1="78.66666666666666" x2="35" y2="78.66666666666666" style="visibility: inherit;" fill="rgb(0, 0, 0)" stroke="rgb(204, 204, 204)" stroke-width="1px"></line><line x1="40" y1="59.00000000000001" x2="35" y2="59.00000000000001" style="visibility: inherit;" fill="rgb(0, 0, 0)" stroke="rgb(204, 204, 204)" stroke-width="1px"></line><line x1="40" y1="39.33333333333333" x2="35" y2="39.33333333333333" style="visibility: inherit;" fill="rgb(0, 0, 0)" stroke="rgb(204, 204, 204)" stroke-width="1px"></line><line x1="40" y1="19.666666666666675" x2="35" y2="19.666666666666675" style="visibility: inherit;" fill="rgb(0, 0, 0)" stroke="rgb(204, 204, 204)" stroke-width="1px"></line><line x1="40" y1="0" x2="35" y2="0" style="visibility: inherit;" fill="rgb(0, 0, 0)" stroke="rgb(204, 204, 204)" stroke-width="1px"></line></g><g transform="translate(30, 0)"><text x="0" y="177" dx="0em" dy="0.3em" style="text-anchor: end; visibility: hidden; font-family: Roboto, sans-serif; font-size: 12px; font-weight: 200;" fill="rgb(255, 255, 255)" stroke="none" stroke-width="1px">-10</text><text x="0" y="157.33333333333331" dx="0em" dy="0.3em" style="text-anchor: end; visibility: inherit; font-family: Roboto, sans-serif; font-size: 12px; font-weight: 200;" fill="rgb(255, 255, 255)" stroke="none" stroke-width="1px">0</text><text x="0" y="137.66666666666666" dx="0em" dy="0.3em" style="text-anchor: end; visibility: hidden; font-family: Roboto, sans-serif; font-size: 12px; font-weight: 200;" fill="rgb(255, 255, 255)" stroke="none" stroke-width="1px">10</text><text x="0" y="118.00000000000001" dx="0em" dy="0.3em" style="text-anchor: end; visibility: inherit; font-family: Roboto, sans-serif; font-size: 12px; font-weight: 200;" fill="rgb(255, 255, 255)" stroke="none" stroke-width="1px">20</text><text x="0" y="98.33333333333334" dx="0em" dy="0.3em" style="text-anchor: end; visibility: hidden; font-family: Roboto, sans-serif; font-size: 12px; font-weight: 200;" fill="rgb(255, 255, 255)" stroke="none" stroke-width="1px">30</text><text x="0" y="78.66666666666666" dx="0em" dy="0.3em" style="text-anchor: end; visibility: inherit; font-family: Roboto, sans-serif; font-size: 12px; font-weight: 200;" fill="rgb(255, 255, 255)" stroke="none" stroke-width="1px">40</text><text x="0" y="59.00000000000001" dx="0em" dy="0.3em" style="text-anchor: end; visibility: hidden; font-family: Roboto, sans-serif; font-size: 12px; font-weight: 200;" fill="rgb(255, 255, 255)" stroke="none" stroke-width="1px">50</text><text x="0" y="39.33333333333333" dx="0em" dy="0.3em" style="text-anchor: end; visibility: inherit; font-family: Roboto, sans-serif; font-size: 12px; font-weight: 200;" fill="rgb(255, 255, 255)" stroke="none" stroke-width="1px">60</text><text x="0" y="19.666666666666675" dx="0em" dy="0.3em" style="text-anchor: end; visibility: hidden; font-family: Roboto, sans-serif; font-size: 12px; font-weight: 200;" fill="rgb(255, 255, 255)" stroke="none" stroke-width="1px">70</text><text x="0" y="0" dx="0em" dy="0.3em" style="text-anchor: end; visibility: hidden; font-family: Roboto, sans-serif; font-size: 12px; font-weight: 200;" fill="rgb(255, 255, 255)" stroke="none" stroke-width="1px">80</text></g><line x1="40" y1="0" x2="40" y2="177" fill="rgb(0, 0, 0)" stroke="rgb(204, 204, 204)" stroke-width="1px"></line></g></g><g transform="translate(40, 0)" clip-path="url(#clip_0)"><clipPath id="clip_0"><rect width="290" height="177"></rect></clipPath><g><g><g><line x1="0" y1="0" x2="0" y2="177" fill="rgb(0, 0, 0)" stroke="rgb(189, 189, 189)" stroke-width="1px" opacity="0.25"></line><line x1="20.71428571428571" y1="0" x2="20.71428571428571" y2="177" fill="rgb(0, 0, 0)" stroke="rgb(189, 189, 189)" stroke-width="1px" opacity="0.25"></line><line x1="41.42857142857142" y1="0" x2="41.42857142857142" y2="177" fill="rgb(0, 0, 0)" stroke="rgb(189, 189, 189)" stroke-width="1px" opacity="0.25"></line><line x1="62.14285714285714" y1="0" x2="62.14285714285714" y2="177" fill="rgb(0, 0, 0)" stroke="rgb(189, 189, 189)" stroke-width="1px" opacity="0.25"></line><line x1="82.85714285714285" y1="0" x2="82.85714285714285" y2="177" fill="rgb(0, 0, 0)" stroke="rgb(189, 189, 189)" stroke-width="1px" opacity="0.25"></line><line x1="103.57142857142857" y1="0" x2="103.57142857142857" y2="177" fill="rgb(0, 0, 0)" stroke="rgb(189, 189, 189)" stroke-width="1px" opacity="0.25"></line><line x1="124.28571428571428" y1="0" x2="124.28571428571428" y2="177" fill="rgb(0, 0, 0)" stroke="rgb(189, 189, 189)" stroke-width="1px" opacity="0.25"></line><line x1="145" y1="0" x2="145" y2="177" fill="rgb(0, 0, 0)" stroke="rgb(189, 189, 189)" stroke-width="1px" opacity="0.25"></line><line x1="165.7142857142857" y1="0" x2="165.7142857142857" y2="177" fill="rgb(0, 0, 0)" stroke="rgb(189, 189, 189)" stroke-width="1px" opacity="0.25"></line><line x1="186.42857142857144" y1="0" x2="186.42857142857144" y2="177" fill="rgb(0, 0, 0)" stroke="rgb(189, 189, 189)" stroke-width="1px" opacity="0.25"></line><line x1="207.14285714285714" y1="0" x2="207.14285714285714" y2="177" fill="rgb(0, 0, 0)" stroke="rgb(189, 189, 189)" stroke-width="1px" opacity="0.25"></line><line x1="227.85714285714286" y1="0" x2="227.85714285714286" y2="177" fill="rgb(0, 0, 0)" stroke="rgb(189, 189, 189)" stroke-width="1px" opacity="0.25"></line><line x1="248.57142857142856" y1="0" x2="248.57142857142856" y2="177" fill="rgb(0, 0, 0)" stroke="rgb(189, 189, 189)" stroke-width="1px" opacity="0.25"></line><line x1="269.2857142857143" y1="0" x2="269.2857142857143" y2="177" fill="rgb(0, 0, 0)" stroke="rgb(189, 189, 189)" stroke-width="1px" opacity="0.25"></line><line x1="290" y1="0" x2="290" y2="177" fill="rgb(0, 0, 0)" stroke="rgb(189, 189, 189)" stroke-width="1px" opacity="0.25"></line></g><g><line x1="0" y1="177" x2="290" y2="177" fill="rgb(0, 0, 0)" stroke="rgb(189, 189, 189)" stroke-width="1px" opacity="0.25"></line><line x1="0" y1="157.33333333333331" x2="290" y2="157.33333333333331" fill="rgb(0, 0, 0)" stroke="rgb(189, 189, 189)" stroke-width="1px" opacity="0.25"></line><line x1="0" y1="137.66666666666666" x2="290" y2="137.66666666666666" fill="rgb(0, 0, 0)" stroke="rgb(189, 189, 189)" stroke-width="1px" opacity="0.25"></line><line x1="0" y1="118.00000000000001" x2="290" y2="118.00000000000001" fill="rgb(0, 0, 0)" stroke="rgb(189, 189, 189)" stroke-width="1px" opacity="0.25"></line><line x1="0" y1="98.33333333333334" x2="290" y2="98.33333333333334" fill="rgb(0, 0, 0)" stroke="rgb(189, 189, 189)" stroke-width="1px" opacity="0.25"></line><line x1="0" y1="78.66666666666666" x2="290" y2="78.66666666666666" fill="rgb(0, 0, 0)" stroke="rgb(189, 189, 189)" stroke-width="1px" opacity="0.25"></line><line x1="0" y1="59.00000000000001" x2="290" y2="59.00000000000001" fill="rgb(0, 0, 0)" stroke="rgb(189, 189, 189)" stroke-width="1px" opacity="0.25"></line><line x1="0" y1="39.33333333333333" x2="290" y2="39.33333333333333" fill="rgb(0, 0, 0)" stroke="rgb(189, 189, 189)" stroke-width="1px" opacity="0.25"></line><line x1="0" y1="19.666666666666675" x2="290" y2="19.666666666666675" fill="rgb(0, 0, 0)" stroke="rgb(189, 189, 189)" stroke-width="1px" opacity="0.25"></line><line x1="0" y1="0" x2="290" y2="0" fill="rgb(0, 0, 0)" stroke="rgb(189, 189, 189)" stroke-width="1px" opacity="0.25"></line></g></g></g><g><g><line x1="0" y1="157.33333333333331" x2="290" y2="157.33333333333331" fill="rgb(0, 0, 0)" stroke="rgb(153, 153, 153)" stroke-width="1.5px"></line></g></g><g><g><line x1="20.71428571428571" y1="0" x2="20.71428571428571" y2="177" fill="rgb(0, 0, 0)" stroke="rgb(153, 153, 153)" stroke-width="1.5px"></line></g></g><g><g><g><g><g><path stroke="rgb(51, 187, 238)" stroke-width="2px" d="M24.857142857142858,155.36666666666667L29,155.0716666549444L33.14285714285714,152.85414975938343L37.285714285714285,149.33615807306532L41.42857142857142,144.19801975484526L45.57142857142857,139.03988710946606L49.714285714285715,134.4686332297848L53.85714285714286,130.65702673208844L58,128.24457040434595L62.14285714285714,124.40673681059697L66.28571428571428,120.27143971032898L70.42857142857143,116.2861891031607L74.57142857142857,113.47524174944289L78.71428571428571,110.46838809373591L82.85714285714285,108.36671134605902L87,105.76075902672629L91.14285714285714,105.18902470700216L95.28571428571429,103.69739678790363L99.42857142857143,101.03240913249282L103.57142857142857,99.6144600636262L107.71428571428572,98.04784155130693L111.85714285714286,98.13057196614778L116,95.67858952202246L120.14285714285715,94.0264786180363L124.28571428571428,93.24761804976048L128.42857142857142,93.05563572860652L132.57142857142856,92.35044594164593L136.71428571428572,91.05413451591913L140.85714285714286,89.72568070021723L145,87.52834270811923L149.14285714285714,86.83927304038765L153.28571428571428,86.1976972265409L157.42857142857142,85.23848543693016L161.57142857142858,84.92255683945078L165.7142857142857,83.65526717514659L169.85714285714286,82.75329314897472L174,81.99184303148238L178.14285714285717,81.95977368579508L182.28571428571428,81.5786631303057L186.42857142857144,80.80719787715218L190.57142857142858,80.28138395210655L194.7142857142857,79.360164904512L198.85714285714286,78.76809774217817L203,78.38925840516967L207.14285714285714,77.53262206978687L211.28571428571428,76.71184074873824L215.42857142857144,76.21937195614181L219.57142857142856,75.67215758732841L223.71428571428572,75.17862668536567L227.85714285714286,74.8353100647648L232,74.35398495853428L236.14285714285714,73.8449241884166L240.2857142857143,73.51588868663337L244.42857142857142,73.14539975861051L248.57142857142856,72.85230628176116L252.71428571428572,72.80231674228258L256.85714285714283,72.76445767232266L261,72.49000913708498L265.1428571428571,72.30960632250164L269.2857142857143,72.1384298599886" style="fill: none;" fill="none"></path></g><g><path stroke="rgb(0, 119, 187)" stroke-width="2px" d="M24.857142857142858,155.3970018486182L29,155.28373732392987L33.14285714285714,154.09129371882295L37.285714285714285,151.53112484778404L41.42857142857142,148.173099811341L45.57142857142857,144.16652896491576L49.714285714285715,139.8980282500092L53.85714285714286,135.89207200955394L58,132.40334330929065L62.14285714285714,128.96609474529782L66.28571428571428,125.64075022352914L70.42857142857143,122.83836551655351L74.57142857142857,120.16439011743876L78.71428571428571,117.76186849111093L82.85714285714285,115.4457626008081L87,113.2016539558039L91.14285714285714,111.38275745242231L95.28571428571429,109.59344145790844L99.42857142857143,107.93607842435756L103.57142857142857,106.43900890466738L107.71428571428572,104.99318085637341L111.85714285714286,103.6017261265873L116,102.30277290511226L120.14285714285715,101.07034674104939L124.28571428571428,99.7604334871752L128.42857142857142,98.7278664292824L132.57142857142856,97.59223434060597L136.71428571428572,96.44361466401755L140.85714285714286,95.3872701446264L145,94.368952895588L149.14285714285714,93.23793149333505L153.28571428571428,91.95813136291235L157.42857142857142,90.93890235916511L161.57142857142858,90.17529462034607L165.7142857142857,89.17818721242342L169.85714285714286,88.12765185926162L174,87.21367703722815L178.14285714285717,86.32254490310999L182.28571428571428,85.50263353793969L186.42857142857144,84.42447084804783L190.57142857142858,83.62550287155052L194.7142857142857,82.56384338908609L198.85714285714286,81.4265144478368L203,80.54319514722744L207.14285714285714,79.5026252588012L211.28571428571428,78.48116886452691L215.42857142857144,77.43651122468293L219.57142857142856,76.54418543148569L223.71428571428572,75.69361793816056L227.85714285714286,74.69240001093512L232,73.87420038253366L236.14285714285714,73.20836142621422L240.2857142857143,72.37628501368604L244.42857142857142,71.61072172232217L248.57142857142856,70.79208656732831L252.71428571428572,70.32060335030893L256.85714285714283,69.65320571949509L261,69.34101446563255L265.1428571428571,69.10800208147914L269.2857142857143,68.8838845008406" style="fill: none;" fill="none"></path></g></g></g></g><g opacity="0.2"><g><g><g><path stroke="rgb(51, 187, 238)" stroke-width="2px" d="M24.857142857142858,155.36666666666667L29,154.89466664791107L33.14285714285714,150.72533353964488L37.285714285714285,145.19899984995524L41.42857142857142,137.48966636657715L45.57142857142857,131.9043327331543L49.714285714285715,127.93166704177857L53.85714285714286,125.09966786702475L58,124.68666591644288L62.14285714285714,118.70800120035805L66.28571428571428,114.10600090026855L70.42857142857143,110.3300007502238L74.57142857142857,109.26799894968667L78.71428571428571,105.96399834950765L82.85714285714285,105.21666666666667L87,101.85366846720378L91.14285714285714,104.33166516621908L95.28571428571429,101.46033363342285L99.42857142857143,97.03533363342287L103.57142857142857,97.48766606648763L107.71428571428572,95.6979996999105L111.85714285714286,98.25466486612956L116,92.00066426595052L120.14285714285715,91.54833183288575L124.28571428571428,92.0793327331543L128.42857142857142,92.76766306559246L132.57142857142856,91.29266306559245L136.71428571428572,89.10966936747232L140.85714285714286,87.73300120035807L145,84.23233693440756L149.14285714285714,85.8056687672933L153.28571428571428,85.23533363342285L157.42857142857142,83.79966786702474L161.57142857142858,84.448663965861L165.7142857142857,81.7543327331543L169.85714285714286,81.40033213297527L174,80.84966786702475L178.14285714285717,81.91166966756185L182.28571428571428,81.00699729919434L186.42857142857144,79.64999999999999L190.57142857142858,79.49266306559245L194.7142857142857,77.97833633422852L198.85714285714286,77.87999699910482L203,77.82099939982095L207.14285714285714,76.24766756693522L211.28571428571428,75.4806687672933L215.42857142857144,75.4806687672933L219.57142857142856,74.85133603413901L223.71428571428572,74.43833033243816L227.85714285714286,74.32033513387044L232,73.63199729919434L236.14285714285714,73.08133303324381L240.2857142857143,73.02233543395997L244.42857142857142,72.58966636657715L248.57142857142856,72.41266606648765L252.71428571428572,72.72733243306479L256.85714285714283,72.70766906738281L261,72.07833633422851L265.1428571428571,72.03900210062663L269.2857142857143,71.88166516621908" style="fill: none;" fill="none"></path></g><g><path stroke="rgb(0, 119, 187)" stroke-width="2px" d="M24.857142857142858,155.3970018486182L29,155.21577860911688L33.14285714285714,152.94654785792034L37.285714285714285,148.5203662554423L41.42857142857142,143.78886232376098L45.57142857142857,138.62399911880493L49.714285714285715,133.79400393168132L53.85714285714286,130.05134935379027L58,127.25814612706502L62.14285714285714,123.86218121846518L66.28571428571428,120.68289407094319L70.42857142857143,118.65003890991211L74.57142857142857,116.16215801239014L78.71428571428571,114.16279284159343L82.85714285714285,111.9743262608846L87,109.83707370758056L91.14285714285714,108.65518239339193L95.28571428571429,106.90992177327475L99.42857142857143,105.45028635660807L103.57142857142857,104.19354146321616L107.71428571428572,102.82451807657877L111.85714285714286,101.51458981831868L116,100.35436871846518L120.14285714285715,99.22172209421794L124.28571428571428,97.79557291666667L128.42857142857142,97.17902024586995L132.57142857142856,95.88878911336263L136.71428571428572,94.7206869125366L140.85714285714286,93.80275433858236L145,92.84147758483887L149.14285714285714,91.54139976501466L153.28571428571428,90.03843142191567L157.42857142857142,89.41005897521971L161.57142857142858,89.02988306681316L165.7142857142857,87.68252614339194L169.85714285714286,86.55184885660806L174,85.84271481831868L178.14285714285717,84.98584671020508L182.28571428571428,84.27276649475097L186.42857142857144,82.80722681681316L190.57142857142858,82.42705090840657L194.7142857142857,80.97135416666667L198.85714285714286,79.72052103678386L203,79.21821619669596L207.14285714285714,77.94177042643229L211.28571428571428,76.94898427327473L215.42857142857144,75.86952476501465L219.57142857142856,75.20569674173991L223.71428571428572,74.4177666982015L227.85714285714286,73.1905731201172L232,72.6469009399414L236.14285714285714,72.20960299173991L240.2857142857143,71.12817039489747L244.42857142857142,70.46237678527832L248.57142857142856,69.56413383483887L252.71428571428572,69.61337852478027L256.85714285714283,68.65210927327473L261,68.87272758483887L265.1428571428571,68.75848350524902L269.2857142857143,68.5477081298828" style="fill: none;" fill="none"></path></g></g></g></g></g></g><g transform="translate(40, 177)" clip-path="url(#clip_1)"><clipPath id="clip_1"><rect width="290" height="23"></rect></clipPath><g><g><line x1="0" y1="0" x2="0" y2="5" style="visibility: inherit;" fill="rgb(0, 0, 0)" stroke="rgb(204, 204, 204)" stroke-width="1px"></line><line x1="20.71428571428571" y1="0" x2="20.71428571428571" y2="5" style="visibility: inherit;" fill="rgb(0, 0, 0)" stroke="rgb(204, 204, 204)" stroke-width="1px"></line><line x1="41.42857142857142" y1="0" x2="41.42857142857142" y2="5" style="visibility: inherit;" fill="rgb(0, 0, 0)" stroke="rgb(204, 204, 204)" stroke-width="1px"></line><line x1="62.14285714285714" y1="0" x2="62.14285714285714" y2="5" style="visibility: inherit;" fill="rgb(0, 0, 0)" stroke="rgb(204, 204, 204)" stroke-width="1px"></line><line x1="82.85714285714285" y1="0" x2="82.85714285714285" y2="5" style="visibility: inherit;" fill="rgb(0, 0, 0)" stroke="rgb(204, 204, 204)" stroke-width="1px"></line><line x1="103.57142857142857" y1="0" x2="103.57142857142857" y2="5" style="visibility: inherit;" fill="rgb(0, 0, 0)" stroke="rgb(204, 204, 204)" stroke-width="1px"></line><line x1="124.28571428571428" y1="0" x2="124.28571428571428" y2="5" style="visibility: inherit;" fill="rgb(0, 0, 0)" stroke="rgb(204, 204, 204)" stroke-width="1px"></line><line x1="145" y1="0" x2="145" y2="5" style="visibility: inherit;" fill="rgb(0, 0, 0)" stroke="rgb(204, 204, 204)" stroke-width="1px"></line><line x1="165.7142857142857" y1="0" x2="165.7142857142857" y2="5" style="visibility: inherit;" fill="rgb(0, 0, 0)" stroke="rgb(204, 204, 204)" stroke-width="1px"></line><line x1="186.42857142857144" y1="0" x2="186.42857142857144" y2="5" style="visibility: inherit;" fill="rgb(0, 0, 0)" stroke="rgb(204, 204, 204)" stroke-width="1px"></line><line x1="207.14285714285714" y1="0" x2="207.14285714285714" y2="5" style="visibility: inherit;" fill="rgb(0, 0, 0)" stroke="rgb(204, 204, 204)" stroke-width="1px"></line><line x1="227.85714285714286" y1="0" x2="227.85714285714286" y2="5" style="visibility: inherit;" fill="rgb(0, 0, 0)" stroke="rgb(204, 204, 204)" stroke-width="1px"></line><line x1="248.57142857142856" y1="0" x2="248.57142857142856" y2="5" style="visibility: inherit;" fill="rgb(0, 0, 0)" stroke="rgb(204, 204, 204)" stroke-width="1px"></line><line x1="269.2857142857143" y1="0" x2="269.2857142857143" y2="5" style="visibility: inherit;" fill="rgb(0, 0, 0)" stroke="rgb(204, 204, 204)" stroke-width="1px"></line><line x1="290" y1="0" x2="290" y2="5" style="visibility: inherit;" fill="rgb(0, 0, 0)" stroke="rgb(204, 204, 204)" stroke-width="1px"></line></g><g transform="translate(0, 8)"><text x="0" y="0" dx="0em" dy="0.95em" style="text-anchor: middle; visibility: hidden; font-family: Roboto, sans-serif; font-size: 12px; font-weight: 200;" fill="rgb(255, 255, 255)" stroke="none" stroke-width="1px">-5</text><text x="20.71428571428571" y="0" dx="0em" dy="0.95em" style="text-anchor: middle; visibility: inherit; font-family: Roboto, sans-serif; font-size: 12px; font-weight: 200;" fill="rgb(255, 255, 255)" stroke="none" stroke-width="1px">0</text><text x="41.42857142857142" y="0" dx="0em" dy="0.95em" style="text-anchor: middle; visibility: inherit; font-family: Roboto, sans-serif; font-size: 12px; font-weight: 200;" fill="rgb(255, 255, 255)" stroke="none" stroke-width="1px">5</text><text x="62.14285714285714" y="0" dx="0em" dy="0.95em" style="text-anchor: middle; visibility: inherit; font-family: Roboto, sans-serif; font-size: 12px; font-weight: 200;" fill="rgb(255, 255, 255)" stroke="none" stroke-width="1px">10</text><text x="82.85714285714285" y="0" dx="0em" dy="0.95em" style="text-anchor: middle; visibility: inherit; font-family: Roboto, sans-serif; font-size: 12px; font-weight: 200;" fill="rgb(255, 255, 255)" stroke="none" stroke-width="1px">15</text><text x="103.57142857142857" y="0" dx="0em" dy="0.95em" style="text-anchor: middle; visibility: inherit; font-family: Roboto, sans-serif; font-size: 12px; font-weight: 200;" fill="rgb(255, 255, 255)" stroke="none" stroke-width="1px">20</text><text x="124.28571428571428" y="0" dx="0em" dy="0.95em" style="text-anchor: middle; visibility: inherit; font-family: Roboto, sans-serif; font-size: 12px; font-weight: 200;" fill="rgb(255, 255, 255)" stroke="none" stroke-width="1px">25</text><text x="145" y="0" dx="0em" dy="0.95em" style="text-anchor: middle; visibility: inherit; font-family: Roboto, sans-serif; font-size: 12px; font-weight: 200;" fill="rgb(255, 255, 255)" stroke="none" stroke-width="1px">30</text><text x="165.7142857142857" y="0" dx="0em" dy="0.95em" style="text-anchor: middle; visibility: inherit; font-family: Roboto, sans-serif; font-size: 12px; font-weight: 200;" fill="rgb(255, 255, 255)" stroke="none" stroke-width="1px">35</text><text x="186.42857142857144" y="0" dx="0em" dy="0.95em" style="text-anchor: middle; visibility: inherit; font-family: Roboto, sans-serif; font-size: 12px; font-weight: 200;" fill="rgb(255, 255, 255)" stroke="none" stroke-width="1px">40</text><text x="207.14285714285714" y="0" dx="0em" dy="0.95em" style="text-anchor: middle; visibility: inherit; font-family: Roboto, sans-serif; font-size: 12px; font-weight: 200;" fill="rgb(255, 255, 255)" stroke="none" stroke-width="1px">45</text><text x="227.85714285714286" y="0" dx="0em" dy="0.95em" style="text-anchor: middle; visibility: inherit; font-family: Roboto, sans-serif; font-size: 12px; font-weight: 200;" fill="rgb(255, 255, 255)" stroke="none" stroke-width="1px">50</text><text x="248.57142857142856" y="0" dx="0em" dy="0.95em" style="text-anchor: middle; visibility: inherit; font-family: Roboto, sans-serif; font-size: 12px; font-weight: 200;" fill="rgb(255, 255, 255)" stroke="none" stroke-width="1px">55</text><text x="269.2857142857143" y="0" dx="0em" dy="0.95em" style="text-anchor: middle; visibility: inherit; font-family: Roboto, sans-serif; font-size: 12px; font-weight: 200;" fill="rgb(255, 255, 255)" stroke="none" stroke-width="1px">60</text><text x="290" y="0" dx="0em" dy="0.95em" style="text-anchor: middle; visibility: hidden; font-family: Roboto, sans-serif; font-size: 12px; font-weight: 200;" fill="rgb(255, 255, 255)" stroke="none" stroke-width="1px">65</text></g><line x1="0" y1="0" x2="290" y2="0" fill="rgb(0, 0, 0)" stroke="rgb(204, 204, 204)" stroke-width="1px"></line></g></g></g></g></svg>